<svg width="1024" height="1024" viewBox="0 0 1024 1024" fill="none" xmlns="http://www.w3.org/2000/svg">
<path d="M580.83 131.311C580.265 119.486 583.335 108.979 596.275 105.455C616.76 99.874 633.525 123.381 618.24 139.909C612.435 146.185 605.015 144.494 598.755 149.344C582.76 164.029 567.995 181.428 551.915 195.908L552.31 195.897C578.37 195.384 606.495 196.742 632.53 198.119C677.22 200.482 725.43 198.816 759.98 232.259C788.11 259.491 790.43 292.509 792.995 329.099C794.43 348.055 795.3 367.05 795.61 386.058C796.18 390.78 796.025 397.646 796.06 402.526C796.165 412.663 796.16 422.801 796.045 432.939C796.02 437.841 796.29 454.285 795.57 458.182C795.425 471.53 794.87 484.871 793.9 498.184C791.73 529.915 787.715 559.825 763.51 583.395C742.68 603.675 716.945 609.225 688.995 611.58C696.595 628.205 698.805 650.47 678.27 658.945C671.235 661.855 663.325 661.83 656.315 658.87C639.95 651.935 631.825 630.33 627.76 614.44C621.115 615.38 607.865 615.295 600.875 615.465C584.625 615.985 568.37 616.29 552.11 616.39C513.515 616.785 474.913 616.525 436.325 615.61C422.955 615.2 408.901 615.235 395.564 614.125C395.207 617.24 394.066 620.86 392.953 623.795C387.769 637.475 381.417 652.21 367.244 658.595C360.559 661.665 352.916 661.9 346.057 659.24C339.49 656.785 334.243 651.705 331.578 645.22C326.836 633.88 330.655 621.825 335.129 611.185C334.624 611.2 334.118 611.2 333.613 611.2C328.445 611.18 322.616 610.155 317.468 609.42C295.412 606.28 275.4 598.64 259.6 582.395C249.543 571.845 242.042 559.125 237.678 545.22C230.352 522.405 229.072 487.888 228.309 464.001C227.488 441.422 227.241 418.827 227.568 396.235C227.898 377.271 228.652 358.317 229.829 339.386C231.26 315.507 232.438 289.089 240.861 266.591C245.964 253.097 253.995 240.901 264.376 230.882C300.356 196.348 350.637 200.376 397.03 197.679C420.543 196.312 446.913 195.601 470.398 196.027C454.997 181.624 436.742 162.491 421.948 147.295C414.933 145.932 408.378 144.928 403.439 139.054C399.754 134.653 398.06 128.921 398.76 123.224C399.445 117.492 402.43 112.285 407.03 108.797C411.663 105.293 417.538 103.856 423.266 104.828C435.964 107.023 443.045 118.392 440.981 130.84C454.563 143.303 467.248 156.613 480.351 169.541C486.06 175.173 494.123 183.838 500.145 188.675C507.82 189.42 515.95 188.86 523.655 188.448C531.085 181.843 537.86 174.563 544.88 167.498L580.83 131.311ZM514.875 557.525C557.69 557.42 600.5 556.23 643.255 553.96C665.835 552.615 704.62 552.63 721.025 536.02C726.29 530.62 730.065 523.94 731.975 516.64C735.295 504.135 735.53 485.674 736.045 472.707C737.1 442.898 737.395 413.067 736.93 383.243C736.625 361.496 736.32 312.347 730.69 293.546C728.28 285.511 724.27 277.997 718.195 272.139C711.035 265.234 702.545 260.972 692.95 258.552C675.165 254.07 651.7 254.117 633.115 253.243C592.21 251.492 551.27 250.493 510.325 250.245C470.794 250.561 431.27 251.599 391.775 253.357C370.276 254.324 332.264 253.909 314.04 265.159C290.633 279.609 290.814 311.209 289.509 335.747C287.866 370.956 287.208 406.204 287.536 441.45C287.721 456.191 289.072 472.683 289.224 487.068C289.916 552.54 325.806 550.8 380.758 554.125C425.425 556.47 470.146 557.605 514.875 557.525Z" fill="#EA5051"/>
<path d="M627.76 614.44C633.065 613.785 640.97 613.745 646.45 613.55C656.415 613.22 666.375 612.8 676.33 612.285C680.315 612.09 685.16 612.09 688.995 611.58C696.595 628.205 698.805 650.47 678.27 658.945C671.235 661.855 663.325 661.83 656.315 658.87C639.95 651.935 631.825 630.33 627.76 614.44Z" fill="#D24646"/>
<path d="M335.129 611.185C340.83 611.21 348.613 612.125 354.675 612.45C368.298 613.165 381.928 613.725 395.563 614.125C395.206 617.24 394.066 620.86 392.953 623.795C387.769 637.475 381.417 652.21 367.244 658.595C360.559 661.665 352.916 661.9 346.057 659.24C339.49 656.785 334.243 651.705 331.578 645.22C326.836 633.88 330.655 621.825 335.129 611.185Z" fill="#D24646"/>
<path d="M795.57 458.181C794.795 449.606 793.27 391.71 795.61 386.057C796.18 390.78 796.025 397.646 796.06 402.526C796.165 412.663 796.16 422.801 796.045 432.939C796.02 437.841 796.29 454.284 795.57 458.181Z" fill="#D24646"/>
<path d="M468.019 434.123C469.07 434.063 471.855 433.88 472.712 434.321C479.935 438.036 483.543 443.116 491.481 446.71C506.26 453.401 524.895 452.036 538.84 443.948C543.35 441.262 547.37 436.18 552.395 434.53C559.84 432.084 563.095 438.16 565.12 444.099C563.7 450.199 562.145 452.132 557.92 456.48C553.755 460.321 549.065 463.549 543.995 466.069C495.954 489.61 438.599 447.73 468.019 434.123Z" fill="#282B34"/>
<path d="M434.097 353.588C451.682 352.427 457.05 364.55 456.749 380.071C456.496 393.144 454.671 403.137 439.805 406.413C429.258 406.846 419.765 402.144 418.004 390.586C415.787 376.028 415.838 356.964 434.097 353.588Z" fill="#282B34"/>
<path d="M585.34 353.633C601.43 352.097 608.215 362.727 607.91 377.457C607.625 391.031 607.505 401.553 592.105 406.211C570.66 408.59 567.665 390.648 568.83 374.16C569.605 363.144 574.32 356.007 585.34 353.633Z" fill="#282B34"/>
<path d="M368.917 765.125C386.121 763.98 393.922 767.99 404.266 781.295C405.797 779.18 407.422 777.065 409.215 775.165C415.578 768.41 424.19 765.13 433.367 765.015C442.957 764.895 453.563 767.065 460.556 774.11C464.944 778.53 467.505 784.485 468.807 790.505C471.391 802.44 470.096 817.465 470.035 829.745C469.985 839.995 470.332 850.29 470.224 860.52C470.198 862.98 469.717 865.705 467.78 867.41C464.792 870.04 452.692 869.33 448.748 869.025C446.575 868.855 444.557 868.23 443.313 866.325C439.469 860.45 443.966 814.595 441.476 802.42C440.833 799.28 439.565 796.2 437.444 793.765C434.566 790.455 430.148 789.03 425.849 788.935C421.543 788.835 417.461 790.785 414.416 793.79C412.114 796.065 409.872 800.265 409.288 803.485C408.303 808.92 408.891 815.245 408.895 820.775L408.951 854.625C409.234 870.185 407.235 869.39 392.016 869.105C387.746 869.025 382.211 869.25 381.692 863.66C380.427 848.53 381.476 832.07 381.293 816.915C381.185 808.04 381.885 791.975 370.444 789.74C345.984 784.965 347.853 807.355 347.918 822.135L348.05 850.705C348.069 855.26 348.464 861.77 347.151 865.94C343.185 870.775 328.121 869.565 322.852 867.985C318.647 866.725 320.046 848.42 320.044 844.62L320.102 797.54C320.117 793.13 319.117 773.82 321.053 769.395C322.481 766.135 333.682 766.495 337.435 766.525C348.158 766.6 346.952 769.235 348.058 778.035C353.927 769.765 359.37 767.295 368.917 765.125Z" fill="#282B34"/>
<path d="M895.08 729.725C898.11 730.03 902.445 729.655 905.28 730.285C915.16 732.48 905.48 752.035 903.505 758.13C897.44 776.61 891.25 795.055 884.935 813.455L874.39 844.685C873.14 848.375 867.32 868.045 863.88 868.49C857.215 869.34 834.1 872.675 831.2 864.765C827.53 854.76 824.025 843.855 820.66 833.73L799.49 770.91C797.835 765.545 783.085 732.69 792.725 730.165C794.645 729.66 815.265 729.425 816.49 731.04C823.615 740.42 826.305 762.19 831.025 773.685C836.685 794.405 844.06 814.78 849.055 835.145C850.765 828.225 879.455 733.845 881.155 732.12C884.49 728.72 890.69 729.805 895.08 729.725Z" fill="#EA5051"/>
<path d="M251.406 765.21C271.51 763.135 291.778 767.16 297.929 789.045C298.773 792.13 299.287 795.3 299.46 798.495C300.08 809.245 299.267 821.64 299.47 832.58C299.453 842.22 299.743 851.805 299.607 861.45C299.536 866.49 298.204 868.68 292.829 869.055C288.059 869.39 280.384 869.855 276.478 866.815C275.016 865.675 274.704 859.76 274.525 857.86C261.057 875.01 234.047 875.095 220.337 858.515C216.039 852.62 214.13 847.09 213.955 839.845C213.098 804.41 248.069 805.46 273.023 804.815C272.903 798.52 272.027 792.365 266.252 788.645C260.985 785.245 252.536 785.8 247.299 788.97C244.179 791 241.8 795.74 237.839 796.235C233.551 796.82 224.504 797.705 220.924 794.975C215.746 791.03 220.804 780.405 223.902 776.82C230.751 768.9 241.913 766.29 251.406 765.21ZM252.821 847.005C266.455 847.385 273.041 843.275 273.101 828.78C273.102 826.64 273.084 824.5 273.047 822.36L263.858 822.725C259.911 822.825 257.044 822.78 253.209 823.685C238.659 827.125 237.307 843.605 252.821 847.005Z" fill="#282B34"/>
<path d="M127.368 730.14C152.387 729.36 178.385 730.335 203.448 730.295C213.222 730.28 210.706 746.055 209.627 752.565C208.146 753.96 206.823 754.75 205.132 755.87C199.61 756.22 192.136 756.01 186.461 756.015L151.995 756.035C151.869 766.715 152.049 777.375 151.867 788.095C158.826 788.07 198.022 786.7 200.993 789.855C203.762 792.8 203.213 801.41 202.995 805.29C202.825 808.305 201.929 810.185 199.721 812.22C194.472 814.07 159.472 813.405 151.946 813.405L152.023 845.46C152.039 850.855 152.226 856.425 151.92 861.72C151.538 869.75 144.193 869.16 138.597 869.125C128.741 869.06 122.34 871.03 122.227 858.77C122.078 842.62 122.179 825.835 122.124 809.805L122.282 760.115C122.277 752.405 121.258 742.44 122.859 734.76C123.372 732.3 125.188 731.19 127.368 730.14Z" fill="#282B34"/>
<path d="M583.335 767.09C589.425 766.875 598.94 765.86 604.685 768.115C605.91 768.595 607.84 772.585 608.2 773.905C613.95 795.12 620.01 816.345 625.535 837.62L637.35 795.605C638.565 791.29 643.415 769.74 647.84 767.79C653.565 766.19 662.82 766.7 668.525 767.46C673.015 768.065 672.96 774.235 672.065 777.32C669.9 784.745 667.045 792.485 664.46 799.73L649.14 842.875C644.665 855.27 640.445 868.465 635.385 880.48C631.785 889.015 624.355 898.595 615.535 901.97C607.25 905.14 595.23 906.09 587.38 901.34C586.34 898.09 585.025 888.335 586.255 885.84C592.28 873.605 607.615 887.865 611.785 869.21C604.85 852.145 598.915 833.365 592.5 815.96C588.155 803.31 583.275 790.79 579.31 778.02C577.47 772.105 577.855 769.885 583.335 767.09Z" fill="#282B34"/>
<path d="M700.52 729.775C711.885 730.48 773.355 727.95 778.185 731.77C780.035 733.235 780.375 736.38 780.54 738.565C780.825 742.415 781.56 753.91 778.84 756.605C775.06 760.35 749.98 759.175 743.99 758.57C744.445 790.45 743.66 822.67 744.21 854.625C744.26 857.29 744.79 864.52 743.08 866.43C739.155 870.455 730.58 869.6 725.535 869.67C720.365 869.745 714.3 869.175 714.135 862.985C713.835 851.345 713.99 839.315 714.005 827.7L713.96 758.575C706.325 759.15 697.895 758.94 690.23 758.84C679.45 758.7 679.125 755.875 678.61 746.985C677.41 726.395 684.35 730.01 700.52 729.775Z" fill="#EA5051"/>
<path d="M540.385 724.615C543.23 724.35 562.21 723.455 562.925 726.57C565.475 737.735 564.39 752.525 564.39 764.225L564.325 823.965L564.48 848.115C564.53 854.935 566.24 864.715 560.21 868.855C555.515 869.13 541.195 870.43 537.465 866.745C536.685 865.975 536.065 859.125 536.075 857.55C536.235 814.67 535.645 771.7 536.315 728.85C536.34 727.065 539.07 725.43 540.385 724.615Z" fill="#282B34"/>
<path d="M496.455 766.655C518.74 766.08 518.15 764.645 518.02 786.72L517.905 811.165L518.04 843.715C518.07 849.475 518.23 855.31 518 861.07C517.765 866.99 516.24 868.455 510.505 869.005C505.26 869.02 496.438 870.095 492.004 867.64C490.892 867.025 490.459 866.575 490.231 865.35C488.955 858.495 489.326 850.475 489.312 843.465L489.282 811.76C489.274 798.71 489.073 785.425 489.41 772.375C489.532 767.665 492.529 767.105 496.455 766.655Z" fill="#282B34"/>
<path d="M498.52 722.985C507.34 720.26 516.7 725.21 519.42 734.03C522.14 742.855 517.185 752.21 508.36 754.92C499.544 757.63 490.2 752.685 487.484 743.87C484.769 735.055 489.708 725.71 498.52 722.985Z" fill="#282B34"/>
</svg>
